<svg width="16" height="21" viewBox="0 0 16 21" fill="none" xmlns="http://www.w3.org/2000/svg">
<path d="M4.29986 12.8376L4.01123 12.0789H1.55446L1.26584 12.8541C1.15313 13.1565 1.05693 13.3606 0.977209 13.4664C0.897493 13.5722 0.766923 13.6252 0.585501 13.6252C0.431566 13.6252 0.295499 13.5688 0.177299 13.4561C0.0590995 13.3434 0 13.2156 0 13.0726C0 12.9902 0.013744 12.905 0.0412324 12.817C0.0687207 12.729 0.114076 12.6067 0.177299 12.45L1.72283 8.52538C1.76681 8.41268 1.81973 8.2773 1.88157 8.11925C1.94342 7.96119 2.00939 7.82993 2.07949 7.72548C2.14959 7.62102 2.24167 7.53649 2.35575 7.4719C2.46982 7.4073 2.6107 7.375 2.77838 7.375C2.94881 7.375 3.09106 7.4073 3.20514 7.4719C3.31921 7.53649 3.4113 7.61965 3.48139 7.72135C3.55149 7.82306 3.61059 7.93233 3.65869 8.04915C3.7068 8.16598 3.76796 8.32197 3.84218 8.51714L5.42069 12.417C5.54439 12.7139 5.60624 12.9297 5.60624 13.0644C5.60624 13.2046 5.54783 13.3331 5.431 13.4499C5.31418 13.5667 5.1733 13.6252 5.00837 13.6252C4.91216 13.6252 4.82969 13.608 4.76097 13.5736C4.69225 13.5393 4.63453 13.4925 4.5878 13.4334C4.54107 13.3743 4.4909 13.2836 4.4373 13.1613C4.38438 13.039 4.33834 12.9311 4.29986 12.8376ZM1.87608 11.1601H3.68137L2.77013 8.66626L1.87608 11.1601Z" fill="#707275"/>
<path d="M9.68788 8.48871H8.35263V12.8793C8.35263 13.1322 8.29628 13.3198 8.18358 13.4421C8.07088 13.5644 7.92519 13.6256 7.74652 13.6256C7.56509 13.6256 7.41734 13.5637 7.30327 13.44C7.18919 13.3163 7.13215 13.1294 7.13215 12.8793V8.48871H5.79622C5.58731 8.48871 5.432 8.44267 5.33029 8.35058C5.22859 8.2585 5.17773 8.13686 5.17773 7.98568C5.17773 7.82899 5.23065 7.70529 5.33648 7.61458C5.44231 7.52387 5.59556 7.47852 5.79622 7.47852H9.68788C9.89954 7.47852 10.0569 7.52525 10.16 7.61871C10.2631 7.71217 10.3146 7.83449 10.3146 7.98568C10.3146 8.13686 10.2624 8.2585 10.1579 8.35058C10.0535 8.44267 9.89679 8.48871 9.68788 8.48871Z" fill="#707275"/>
<path d="M15.6317 11.7085C15.6317 12.0741 15.5376 12.4026 15.3493 12.694C15.161 12.9854 14.8854 13.2135 14.5226 13.3784C14.1597 13.5434 13.7295 13.6258 13.232 13.6258C12.6355 13.6258 12.1434 13.5131 11.7559 13.2877C11.481 13.1256 11.2576 12.9091 11.0858 12.6383C10.914 12.3676 10.8281 12.1044 10.8281 11.8487C10.8281 11.7003 10.8797 11.5732 10.9827 11.4673C11.0858 11.3615 11.2171 11.3086 11.3765 11.3086C11.5057 11.3086 11.615 11.3498 11.7043 11.4323C11.7937 11.5147 11.8699 11.6371 11.9332 11.7992C12.0101 11.9917 12.0933 12.1525 12.1826 12.2817C12.2719 12.4109 12.3977 12.5174 12.5599 12.6012C12.7221 12.6851 12.9351 12.727 13.199 12.727C13.5618 12.727 13.8566 12.6424 14.0834 12.4734C14.3102 12.3043 14.4236 12.0934 14.4236 11.8405C14.4236 11.6398 14.3624 11.4769 14.2401 11.3519C14.1178 11.2268 13.9597 11.1313 13.7659 11.0653C13.5721 10.9993 13.3131 10.9292 12.9887 10.855C12.5544 10.7533 12.1909 10.6344 11.8981 10.4984C11.6054 10.3623 11.3731 10.1767 11.2013 9.94172C11.0295 9.70669 10.9436 9.41463 10.9436 9.06553C10.9436 8.73292 11.0343 8.43742 11.2157 8.17903C11.3971 7.92064 11.6596 7.72204 12.0032 7.58322C12.3469 7.44441 12.7509 7.375 13.2155 7.375C13.5866 7.375 13.9075 7.42104 14.1783 7.51313C14.449 7.60521 14.6737 7.72754 14.8524 7.8801C15.0311 8.03266 15.1617 8.19278 15.2441 8.36046C15.3266 8.52813 15.3678 8.69169 15.3678 8.85112C15.3678 8.99681 15.3163 9.12807 15.2132 9.24489C15.1101 9.36172 14.9816 9.42013 14.8277 9.42013C14.6875 9.42013 14.581 9.38508 14.5081 9.31499C14.4353 9.24489 14.3562 9.13013 14.271 8.9707C14.1611 8.74254 14.0291 8.56456 13.8752 8.43674C13.7213 8.30891 13.4739 8.245 13.133 8.245C12.8169 8.245 12.5619 8.31441 12.3682 8.45323C12.1744 8.59204 12.0775 8.75904 12.0775 8.9542C12.0775 9.07515 12.1105 9.17961 12.1764 9.26757C12.2424 9.35553 12.3331 9.43112 12.4486 9.49435C12.564 9.55757 12.6808 9.60705 12.799 9.64279C12.9172 9.67852 13.1124 9.73075 13.3845 9.79947C13.7254 9.87918 14.0339 9.96715 14.3102 10.0634C14.5865 10.1596 14.8215 10.2764 15.0153 10.4138C15.2091 10.5513 15.3603 10.7251 15.4688 10.9354C15.5774 11.1457 15.6317 11.4034 15.6317 11.7085Z" fill="#707275"/>
<path d="M14.0511 4.90511C12.7331 2.85655 10.433 1.5 7.81609 1.5C5.1992 1.5 2.89912 2.85655 1.58105 4.90511" stroke="#707275" stroke-width="1.5" stroke-miterlimit="10" stroke-linecap="round"/>
<path d="M1.58105 16.0947C2.89912 18.1433 5.1992 19.4998 7.81609 19.4998C10.433 19.4998 12.7331 18.1433 14.0511 16.0947" stroke="#707275" stroke-width="1.5" stroke-miterlimit="10" stroke-linecap="round"/>
</svg>
