<svg width="38" height="38" viewBox="0 0 38 38" fill="none" xmlns="http://www.w3.org/2000/svg">
<rect width="37.7127" height="37.9997" rx="18.8563" fill="url(#paint0_linear_123_1307)"/>
<path d="M10.166 26.3633L10.4969 27.9997H18.8368H18.8679H27.2079L27.5398 26.3633H10.166Z" fill="#FFC02E"/>
<path d="M29.8508 13.3662C28.825 13.3662 27.9945 14.0279 27.9945 14.845C27.9945 15.4612 28.4686 15.9896 29.1414 16.2117C27.7281 17.3574 23.9156 19.8388 21.4176 15.7265C20.6671 14.4897 20.0754 13.5449 19.6091 12.8222C20.2486 12.589 20.6938 12.075 20.6938 11.4788C20.6938 10.6617 19.8622 10 18.8375 10C17.8116 10 16.9812 10.6617 16.9812 11.4788C16.9812 12.0839 17.4375 12.6035 18.0914 12.8322C17.6262 13.5538 17.0367 14.4964 16.2895 15.7276C13.7915 19.8399 9.97903 17.3585 8.56572 16.2128C9.23851 15.9907 9.71257 15.4623 9.71257 14.8461C9.71257 14.029 8.88102 13.3673 7.85629 13.3673C6.83155 13.3673 6 14.029 6 14.8461C6 15.6632 6.83155 16.3249 7.85629 16.3249C7.94954 16.3249 8.04169 16.3171 8.13162 16.3072L9.93351 25.2H27.7792L29.5811 16.3072C29.671 16.3183 29.762 16.3249 29.8564 16.3249C30.8822 16.3249 31.7127 15.6632 31.7127 14.8461C31.7082 14.029 30.8767 13.3662 29.8508 13.3662Z" fill="#FFC02E"/>
<defs>
<linearGradient id="paint0_linear_123_1307" x1="37.7974" y1="37.9997" x2="-3.33639" y2="33.9584" gradientUnits="userSpaceOnUse">
<stop stop-color="#F8F8F8"/>
<stop offset="1" stop-color="#E9E9E9"/>
</linearGradient>
</defs>
</svg>
