<svg width="21" height="21" viewBox="0 0 21 21" fill="none" xmlns="http://www.w3.org/2000/svg">
<path d="M12.7529 12.7812L13.7142 15.0628" stroke="#707275" stroke-width="1.5" stroke-miterlimit="10" stroke-linecap="round"/>
<path d="M1.6416 15.0619L7.16875 1.50256C7.32013 1.13163 7.84318 1.12861 7.9991 1.49802L11.2713 9.2633" stroke="#707275" stroke-width="1.5" stroke-miterlimit="10" stroke-linecap="round"/>
<path d="M3.59766 10.8271H9.84313" stroke="#707275" stroke-width="1.5" stroke-miterlimit="10" stroke-linecap="round"/>
<path d="M19.446 3.50091C18.085 4.33437 13.579 7.29347 7.0459 13.6318L9.37726 15.9777C9.37726 15.9777 15.7681 10.0792 19.6216 3.67654C19.6913 3.56223 19.5603 3.43127 19.446 3.50091Z" fill="#707275" stroke="#707275" stroke-width="1.5" stroke-miterlimit="10" stroke-linecap="round"/>
<path d="M2.25623 19.241C2.22217 19.2296 2.22747 19.1789 2.2638 19.1766C2.65362 19.1539 3.44084 18.9268 3.72696 17.5074C4.113 15.5907 4.27044 13.8163 7.04536 13.6309L9.37673 15.9768C9.37748 15.9776 9.05503 21.4824 2.25623 19.241Z" stroke="#707275" stroke-width="1.5" stroke-miterlimit="10" stroke-linecap="round"/>
</svg>
