<svg width="13" height="15" viewBox="0 0 13 15" fill="none" xmlns="http://www.w3.org/2000/svg">
<path fill-rule="evenodd" clip-rule="evenodd" d="M0.617647 10.7939C0.781457 10.7939 0.938558 10.859 1.05439 10.9748C1.17022 11.0907 1.23529 11.2478 1.23529 11.4116V13.0587C1.23529 13.1723 1.32753 13.2645 1.44118 13.2645H11.3235C11.3781 13.2645 11.4305 13.2428 11.4691 13.2042C11.5077 13.1656 11.5294 13.1133 11.5294 13.0587V11.4116C11.5294 11.2478 11.5945 11.0907 11.7103 10.9748C11.8261 10.859 11.9832 10.7939 12.1471 10.7939C12.3109 10.7939 12.468 10.859 12.5838 10.9748C12.6996 11.0907 12.7647 11.2478 12.7647 11.4116V13.0587C12.7647 13.4409 12.6129 13.8074 12.3426 14.0777C12.0723 14.348 11.7057 14.4998 11.3235 14.4998H1.44118C1.05895 14.4998 0.692384 14.348 0.422111 14.0777C0.151838 13.8074 0 13.4409 0 13.0587V11.4116C0 11.2478 0.0650732 11.0907 0.180905 10.9748C0.296736 10.859 0.453837 10.7939 0.617647 10.7939Z" fill="url(#paint0_linear_123_1293)"/>
<path d="M5.34271 0.500003C5.13823 0.499678 4.9411 0.576201 4.79039 0.714399C4.63969 0.852597 4.54641 1.04238 4.52906 1.24612C4.40341 2.68934 4.38085 4.13969 4.46153 5.58612C4.2584 5.5971 4.05526 5.61 3.85212 5.62483L2.62506 5.71459C2.517 5.72251 2.41284 5.75835 2.32278 5.8186C2.23272 5.87885 2.15984 5.96145 2.11129 6.05832C2.06273 6.15519 2.04015 6.263 2.04576 6.37121C2.05137 6.47942 2.08498 6.58432 2.1433 6.67565C3.01851 8.0439 4.14523 9.23378 5.46377 10.1822L5.95542 10.5355C6.07983 10.6246 6.229 10.6725 6.382 10.6725C6.53501 10.6725 6.68418 10.6246 6.80859 10.5355L7.30024 10.1822C8.61878 9.23378 9.7455 8.0439 10.6207 6.67565C10.679 6.58432 10.7126 6.47942 10.7182 6.37121C10.7239 6.263 10.7013 6.15519 10.6527 6.05832C10.6042 5.96145 10.5313 5.87885 10.4412 5.8186C10.3512 5.75835 10.247 5.72251 10.1389 5.71459L8.91189 5.62483C8.70887 5.61013 8.50572 5.59723 8.30247 5.58612C8.38344 4.13971 8.36115 2.68936 8.23577 1.24612C8.21841 1.04224 8.12502 0.852338 7.97414 0.71412C7.82326 0.575902 7.62592 0.499472 7.4213 0.500003H5.34271Z" fill="url(#paint1_linear_123_1293)"/>
<defs>
<linearGradient id="paint0_linear_123_1293" x1="6.38235" y1="10.7939" x2="6.38235" y2="14.4998" gradientUnits="userSpaceOnUse">
<stop stop-color="#9885FF"/>
<stop offset="1" stop-color="#79A9FF"/>
</linearGradient>
<linearGradient id="paint1_linear_123_1293" x1="6.38201" y1="0.5" x2="6.38201" y2="10.6725" gradientUnits="userSpaceOnUse">
<stop stop-color="#9885FF"/>
<stop offset="1" stop-color="#79A9FF"/>
</linearGradient>
</defs>
</svg>
