<svg width="21" height="19" viewBox="0 0 21 19" fill="none" xmlns="http://www.w3.org/2000/svg">
<path fill-rule="evenodd" clip-rule="evenodd" d="M8.07766 2.29347L5.77254 7.5835H10.3836L8.07766 2.29347ZM11.0359 9.08058H5.12009L3.39974 13.0266C3.23453 13.4056 2.79339 13.5789 2.41443 13.4137C2.03547 13.2484 1.86219 12.8073 2.02741 12.4283L6.8737 1.30876C6.97028 1.07228 7.13443 0.869363 7.34577 0.725477C7.56156 0.578567 7.81657 0.5 8.07763 0.5C8.33868 0.5 8.59369 0.578567 8.80948 0.725477C9.02081 0.869352 9.18495 1.07225 9.28153 1.3087L12.2126 8.03293L12.5491 8.80572C12.7141 9.18476 12.5406 9.62582 12.1616 9.79085C11.7825 9.95588 11.3415 9.7824 11.1764 9.40336L11.0359 9.08058Z" fill="#707275"/>
<path d="M12.6555 17.4042C13.1161 17.2999 13.5376 17.0669 13.8711 16.7325L19.3155 11.2931C19.5579 11.061 19.7515 10.7828 19.8849 10.4749C20.0184 10.1671 20.089 9.83561 20.0927 9.50006C20.0964 9.1645 20.0331 8.83159 19.9065 8.52083C19.7798 8.21007 19.5924 7.92772 19.3552 7.69033C19.118 7.45295 18.8358 7.2653 18.5252 7.1384C18.2145 7.01149 17.8817 6.94789 17.5461 6.9513C17.2106 6.95472 16.8791 7.02509 16.5711 7.1583C16.2631 7.2915 15.9847 7.48485 15.7524 7.72702L10.31 13.1684C9.9757 13.5038 9.74115 13.927 9.63636 14.3881L9.1024 16.7375C9.06451 16.9033 9.06933 17.076 9.1164 17.2395C9.16347 17.4029 9.25125 17.5518 9.37152 17.672C9.49179 17.7923 9.64062 17.8801 9.80407 17.9272C9.96752 17.9742 10.1402 17.979 10.3061 17.9412L12.6555 17.4042Z" fill="#707275"/>
<path fill-rule="evenodd" clip-rule="evenodd" d="M6.06747 15.8384C6.01615 15.8309 5.96048 15.8326 5.90892 15.8441C5.20149 16.0011 4.33086 16.4495 3.6509 16.8545L3.26783 16.2114L3.65279 16.8534C2.8836 17.3146 1.91118 17.4461 1.0305 17.0832C1.03045 17.0831 1.03056 17.0832 1.0305 17.0832L0.463609 16.8496C0.0813675 16.6922 -0.100844 16.2546 0.0566283 15.8724C0.214101 15.4901 0.651626 15.3079 1.03387 15.4654L1.60076 15.6989C1.99357 15.8609 2.47041 15.8168 2.88287 15.5694L2.88477 15.5683C3.58212 15.1529 4.62657 14.5951 5.5839 14.3828C6.04556 14.28 6.56139 14.3484 6.96502 14.6031C7.17325 14.7346 7.37186 14.9297 7.49288 15.198C7.61761 15.4744 7.63745 15.7799 7.55873 16.0787C7.5038 16.2862 7.42352 16.4927 7.36089 16.6534L7.35854 16.6594C7.30443 16.7982 7.2621 16.9068 7.23081 17.0025C7.34683 17.0039 7.49255 16.9965 7.6671 16.9785C8.12689 16.9313 8.69586 16.8209 9.26536 16.6888C9.83024 16.5577 10.375 16.41 10.78 16.2946C10.9821 16.237 11.1483 16.1878 11.2636 16.1531C11.3212 16.1357 11.366 16.122 11.3961 16.1127L11.43 16.1023L11.4382 16.0997L11.4401 16.0991C11.8345 15.9754 12.255 16.1947 12.3787 16.5892C12.5024 16.9836 12.283 17.4037 11.8885 17.5275L11.6645 16.8132C11.8885 17.5275 11.8886 17.5274 11.8885 17.5275L11.8845 17.5287L11.8744 17.5319L11.8365 17.5436C11.8037 17.5537 11.756 17.5683 11.6953 17.5866C11.574 17.6231 11.4005 17.6745 11.1903 17.7344C10.7708 17.8539 10.2006 18.0086 9.60378 18.1471C9.01154 18.2845 8.37199 18.4111 7.82013 18.4678C7.54542 18.496 7.2694 18.5095 7.02046 18.4916C6.79808 18.4757 6.47937 18.4286 6.214 18.2429C5.91049 18.0302 5.74488 17.7288 5.6987 17.407C5.65792 17.1228 5.7143 16.856 5.76916 16.6634C5.82147 16.4798 5.89471 16.2923 5.95325 16.1424C5.9576 16.1313 5.96187 16.1203 5.96604 16.1096C6.00665 16.0055 6.04047 15.9171 6.06747 15.8384Z" fill="#707275"/>
</svg>
