<svg width="30" height="26" viewBox="0 0 30 26" fill="none" xmlns="http://www.w3.org/2000/svg">
<path d="M29.7509 16.6586C29.6199 16.0499 29.4297 15.4349 29.169 14.8324C28.9083 14.2312 28.5758 13.6423 28.1765 13.0934C27.3793 11.9904 26.3176 11.0655 25.1778 10.3746C25.0355 10.285 24.8906 10.209 24.7458 10.1256L24.3264 9.8916C24.0556 9.73724 23.781 9.59906 23.5052 9.45839C22.9523 9.18826 22.3893 8.94302 21.8213 8.72019C19.5467 7.84257 17.2117 7.33841 14.8994 7.01848C14.456 6.95748 14.014 6.90644 13.5719 6.86038V0L6.78595 5.30307L0 10.6061L6.78595 15.9092L13.5719 21.2123V15.2158C13.9976 15.1349 14.5341 15.0503 14.9044 14.9855C16.7457 14.6681 18.5858 14.5013 20.3528 14.6021C20.7936 14.6295 21.2281 14.6731 21.6589 14.7328C21.8704 14.7677 22.0871 14.7988 22.2961 14.8436L22.4548 14.8747C22.5052 14.886 22.5468 14.8996 22.5946 14.9108C22.6853 14.937 22.7823 14.9569 22.8704 14.9855C23.5921 15.2034 24.237 15.5208 24.7999 15.974C25.3629 16.4258 25.8415 17.0308 26.2093 17.7728C26.5783 18.5122 26.8314 19.3761 26.9813 20.2911C27.1324 21.2073 27.1841 22.1746 27.1589 23.1568C27.1438 23.7767 27.0997 24.4029 27.0304 25.0315C26.9738 25.5494 27.3856 26 27.912 26C28.2874 26 28.6211 25.7672 28.7483 25.4187C28.9776 24.7863 29.1866 24.1427 29.3655 23.4817C29.6501 22.4323 29.8629 21.343 29.9549 20.2052C30.0443 19.0711 30.0128 17.8786 29.7509 16.6586Z" fill="#939298"/>
</svg>
