<svg width="100" height="32" viewBox="0 0 100 32" fill="none" xmlns="http://www.w3.org/2000/svg">
<path d="M7.18516 31.9999C5.88947 31.997 4.61856 31.6446 3.5064 30.9798C2.39425 30.315 1.48206 29.3625 0.866012 28.2226C0.249963 27.0828 -0.0471233 25.7978 0.00607281 24.5032C0.059269 23.2086 0.460777 21.9523 1.16827 20.8668L12.6839 3.19872C13.7048 1.63548 15.3041 0.541098 17.131 0.155727C18.9578 -0.229645 20.863 0.125475 22.4283 1.14316C23.2695 1.69376 23.9926 2.40637 24.5554 3.23941C25.1183 4.07246 25.5095 5.00925 25.7065 5.99513L26.752 11.2995C27.0601 12.8817 27.8481 14.3306 29.0089 15.4491L29.5808 16.0007C30.4441 16.8347 31.5857 17.4854 32.9733 17.9348C36.0025 18.9145 38.0338 21.6684 38.0338 24.7867C38.0338 28.7662 34.7202 32.0039 30.6455 32.0039C26.5708 32.0039 23.2572 28.7652 23.2572 24.7867C23.2573 24.4036 23.2884 24.0211 23.3503 23.643L23.407 23.2989C23.5153 22.6441 23.6185 22.0247 23.6651 21.4113L23.7886 19.8072C23.8209 19.3897 23.7149 18.9732 23.4871 18.6219C23.2593 18.2706 22.9222 18.004 22.5278 17.8633C22.1335 17.7225 21.7038 17.7154 21.305 17.843C20.9062 17.9706 20.5605 18.2258 20.3211 18.5694L13.2162 28.7531C12.7014 29.5421 12.0359 30.2216 11.2578 30.7528C10.4797 31.2839 9.60437 31.6561 8.68205 31.848C8.18969 31.9503 7.68804 32.0012 7.18516 31.9999ZM21.8808 14.9967C22.5224 14.9968 23.1571 15.1294 23.7452 15.3861C24.3332 15.6428 24.862 16.0182 25.2983 16.4886C25.7346 16.9591 26.0692 17.5145 26.281 18.1202C26.4928 18.7259 26.5774 19.3687 26.5293 20.0086L26.4058 21.6117C26.3492 22.3465 26.2317 23.054 26.1184 23.7371L26.0627 24.0742C26.0251 24.3061 26.0061 24.5406 26.0061 24.7755C26.0061 27.241 28.0879 29.247 30.6475 29.247C33.2071 29.247 35.289 27.241 35.289 24.7755C35.289 22.8526 34.0178 21.1472 32.1252 20.5349C30.3358 19.9559 28.8369 19.0916 27.672 17.9641L27.1001 17.4186C25.5362 15.9125 24.4737 13.9617 24.0568 11.8309L23.0113 6.52547C22.8862 5.8993 22.6377 5.3043 22.2803 4.77518C21.9228 4.24606 21.4636 3.79341 20.9294 3.44364C19.9743 2.82235 18.8118 2.60544 17.6969 2.84055C16.5821 3.07566 15.6062 3.74357 14.9833 4.69763L3.46876 22.3668C3.14352 22.8566 2.9185 23.406 2.8067 23.9833C2.6949 24.5605 2.69852 25.1542 2.81737 25.7301C2.93621 26.3059 3.16791 26.8525 3.49911 27.3384C3.83031 27.8242 4.25444 28.2397 4.74703 28.5607C5.23962 28.8818 5.79092 29.1021 6.36911 29.209C6.9473 29.3159 7.54093 29.3072 8.11576 29.1835C8.69058 29.0598 9.23521 28.8234 9.71821 28.4881C10.2012 28.1528 10.613 27.7252 10.9299 27.2299L10.9542 27.1944L18.0743 16.9936C18.5009 16.3786 19.07 15.8762 19.7331 15.5291C20.3961 15.1821 21.1334 15.0008 21.8818 15.0007L21.8808 14.9967Z" fill="url(#paint0_linear_122_1272)"/>
<path fill-rule="evenodd" clip-rule="evenodd" d="M97.3433 4.47092C97.936 5.0718 98.3996 5.7875 98.7056 6.57405C99.0319 7.42207 99.1943 8.32427 99.1843 9.23282C99.196 10.1407 99.0353 11.0426 98.7107 11.8906C98.4047 12.6774 97.9411 13.3935 97.3484 13.9947C96.754 14.5933 96.0406 15.0605 95.2544 15.3661C93.5429 16.0048 91.6585 16.0048 89.947 15.3661C89.1643 15.0588 88.4542 14.5918 87.8621 13.9947C87.2693 13.3937 86.8061 12.6776 86.5008 11.8906C86.1736 11.0431 86.0108 10.1412 86.0211 9.23282C86.0109 8.32416 86.1737 7.42187 86.5008 6.57405C86.8039 5.78795 87.266 5.07283 87.8581 4.47342C88.4502 3.87401 89.1596 3.4032 89.9419 3.09043C91.651 2.43861 93.5402 2.43861 95.2493 3.09043C96.0351 3.40126 96.748 3.87127 97.3433 4.47092ZM94.554 12.6699C95.1212 12.3474 95.5865 11.8723 95.8971 11.2985C96.223 10.7101 96.3859 10.0152 96.3859 9.21359C96.4027 8.49451 96.2344 7.78318 95.8971 7.14791C95.5876 6.57567 95.1218 6.10321 94.554 5.78563C93.9509 5.46962 93.2799 5.3053 92.5991 5.30689C91.9182 5.30847 91.2479 5.47592 90.6463 5.79474C90.0812 6.11577 89.6162 6.58737 89.3033 7.15702C88.9781 7.73931 88.8154 8.43125 88.8154 9.23282C88.7983 9.95182 88.9663 10.6631 89.3033 11.2985C89.6139 11.8723 90.0792 12.3474 90.6463 12.6699C91.2476 12.9908 91.9186 13.1587 92.6002 13.1587C93.2817 13.1587 93.9528 12.9908 94.554 12.6699ZM84.2792 9.66496C84.6982 9.00102 84.9078 8.20552 84.9078 7.27844C84.9078 6.36418 84.6982 5.57543 84.2792 4.91217C83.8622 4.25106 83.2706 3.718 82.5698 3.37176C81.8073 2.99887 80.9672 2.81226 80.1185 2.82725H75.4002V15.6191H78.1429V11.7306H79.9961L82.0314 15.6191H85.0363L82.6872 11.1305C83.338 10.7911 83.8873 10.2855 84.2792 9.66496ZM78.146 5.4759H79.9111C80.5999 5.4759 81.1353 5.62907 81.5172 5.93539C81.8991 6.24172 82.0901 6.6894 82.0901 7.27844C82.0901 7.86748 81.8991 8.3155 81.5172 8.6225C81.1353 8.9295 80.5999 9.08267 79.9111 9.08199H78.146V5.4759ZM46.1557 2.82731L41.6094 15.6192H44.3714L45.1922 13.2337H49.9561L50.7202 15.6192H53.5005L49.1798 2.82731H46.1557ZM46.0656 10.6973L47.6607 6.06297L49.1444 10.6973H46.0656ZM57.3889 2.82731H54.6462V15.6202H57.3889V2.82731ZM69.1666 2.82731C70.1315 2.82663 70.9705 3.01455 71.6837 3.39104C72.3827 3.75248 72.9607 4.31044 73.3466 4.99622C73.7406 5.69187 73.9377 6.51538 73.9377 7.46674C73.9377 8.41811 73.7406 9.24162 73.3466 9.93726C72.9605 10.6238 72.3784 11.1796 71.6746 11.5333C70.954 11.9031 70.118 12.088 69.1666 12.088H67.269V15.6192H64.5272V2.82731H69.1666ZM68.9642 9.43931C69.6525 9.43931 70.1879 9.26692 70.5704 8.92214H70.5664C70.9483 8.5814 71.1392 8.09627 71.1392 7.46674C71.1412 6.80349 70.9503 6.30587 70.5664 5.97391C70.1825 5.64194 69.6531 5.47596 68.9784 5.47596H67.269V9.43931H68.9642ZM49.0422 24.1481C49.3944 23.5914 49.5702 22.9255 49.5695 22.1502C49.5688 21.3749 49.3931 20.714 49.0422 20.1675C48.6934 19.6138 48.1981 19.1675 47.6111 18.8781C46.9727 18.5656 46.2692 18.4092 45.5586 18.4216H41.6114V29.1347H43.9089V25.8777H45.4604L47.1627 29.1347H49.6798L47.7103 25.3717C48.2544 25.0884 48.7139 24.6663 49.0422 24.1481ZM43.9068 20.6391H45.3855C45.9624 20.6391 46.4097 20.7677 46.7306 21.0248C47.0514 21.2818 47.2103 21.6573 47.2103 22.1502C47.2103 22.6431 47.0504 23.0176 46.7306 23.2746C46.4107 23.5317 45.9624 23.6602 45.3855 23.6602H43.9068V20.6391ZM57.8591 29.1349H51.0477V18.4219H57.8591V20.609H53.3442V22.6696H56.9938V24.8558H53.3442V26.9478H57.8591V29.1349ZM65.5044 23.4085C64.9694 23.1048 64.2609 22.8478 63.379 22.6373C62.6443 22.4699 62.1514 22.2891 61.9004 22.0948C61.783 22.0124 61.6873 21.9028 61.6215 21.7754C61.5558 21.6479 61.5219 21.5064 61.5229 21.363C61.517 21.2198 61.5478 21.0775 61.6125 20.9496C61.6772 20.8217 61.7735 20.7125 61.8923 20.6323C62.1385 20.4596 62.487 20.3729 62.9378 20.3722C63.3298 20.3753 63.7173 20.4554 64.0784 20.608C64.4694 20.7724 64.8091 21.0388 65.0621 21.3792L66.8556 20.1364C66.4751 19.5554 65.9603 19.0746 65.3546 18.7346C64.7312 18.3784 63.9684 18.1999 63.0663 18.1992C62.2688 18.1992 61.5819 18.3409 61.0057 18.6243C60.4631 18.8778 60.0025 19.2782 59.6758 19.7801C59.3624 20.2822 59.2014 20.8644 59.2122 21.4562C59.2048 21.9586 59.3125 22.4561 59.527 22.9105C59.7369 23.3457 60.0958 23.7209 60.6039 24.036C61.1119 24.3511 61.8015 24.6132 62.6726 24.8224C63.0942 24.911 63.5055 25.0426 63.9003 25.2151C64.1284 25.3103 64.3304 25.4589 64.4893 25.6482C64.6018 25.8064 64.66 25.9967 64.6553 26.1907C64.6599 26.3409 64.6295 26.4901 64.5667 26.6266C64.5038 26.763 64.4101 26.883 64.293 26.9771C64.0521 27.1795 63.6955 27.2807 63.2232 27.2807C62.7035 27.2876 62.192 27.1514 61.7445 26.887C61.2836 26.6027 60.9009 26.2079 60.6312 25.7383L58.8378 26.8516C59.0996 27.3975 59.4654 27.887 59.9146 28.2928C60.3372 28.6638 60.8291 28.9473 61.3619 29.1268C61.9225 29.3134 62.5099 29.4065 63.1007 29.4021C63.9104 29.4021 64.6077 29.2577 65.1927 28.9689C65.7452 28.7112 66.2159 28.306 66.553 27.7979C66.8754 27.2961 67.0423 26.7102 67.0327 26.1138C67.0484 25.5625 66.9241 25.0161 66.6714 24.5258C66.4285 24.0846 66.0395 23.7121 65.5044 23.4085ZM74.1254 26.468C74.4715 26.0517 74.6446 25.4725 74.6446 24.7303V18.4219H76.9633V24.6827C76.9633 25.711 76.7946 26.5682 76.4572 27.2544C76.1461 27.9157 75.63 28.4591 74.9857 28.8039C74.3399 29.1501 73.5454 29.3231 72.6022 29.3231C71.6589 29.3231 70.8647 29.1501 70.2197 28.8039C69.5753 28.4591 69.0593 27.9157 68.7481 27.2544C68.4108 26.5682 68.2421 25.711 68.2421 24.6827V18.4219H70.5426V24.7303C70.5405 25.4745 70.7149 26.0537 71.0658 26.468C71.4167 26.8823 71.9278 27.0895 72.5991 27.0895C73.2705 27.0915 73.7792 26.8843 74.1254 26.468ZM87.1506 18.4216L84.6416 25.5944L82.1326 18.4216H80.071L78.1834 29.1347H80.4809L81.2197 24.3525C81.3249 23.7129 81.414 23.0756 81.4869 22.4407L81.496 22.3577L81.5264 22.472C81.689 23.0753 81.8802 23.6916 82.1002 24.3211L83.7368 29.0081H85.5454L87.1819 24.3211C87.4019 23.7017 87.5932 23.0881 87.7558 22.4801L87.7922 22.3435C87.7922 22.3649 87.7953 22.3863 87.7986 22.4089V22.409C87.8003 22.4205 87.802 22.4324 87.8034 22.4447C87.8823 23.079 87.9687 23.7162 88.0625 24.3566L88.8023 29.1387H91.1149L89.2112 18.4216H87.1506ZM99.1844 18.4216V20.6088H94.6694V22.6694H98.319V24.8555H94.6694V26.9475H99.1844V29.1347H92.373V18.4216H99.1844Z" fill="url(#paint1_linear_122_1272)"/>
<defs>
<linearGradient id="paint0_linear_122_1272" x1="-0.000691996" y1="0.00351098" x2="38.054" y2="31.9857" gradientUnits="userSpaceOnUse">
<stop offset="0.5" stop-color="#9885FF"/>
<stop offset="1" stop-color="#79A9FF"/>
</linearGradient>
<linearGradient id="paint1_linear_122_1272" x1="41.5962" y1="2.63497" x2="75.1509" y2="-16.4528" gradientUnits="userSpaceOnUse">
<stop offset="0.5" stop-color="#9885FF"/>
<stop offset="1" stop-color="#79A9FF"/>
</linearGradient>
</defs>
</svg>
