<svg width="18" height="17" viewBox="0 0 18 17" fill="none" xmlns="http://www.w3.org/2000/svg">
<path d="M11.3736 3.26942L2.18733 11.8804C1.9142 12.1363 1.73647 12.4681 1.68057 12.8264L1.18457 16L4.57046 15.535C4.95269 15.4823 5.30659 15.3154 5.5795 15.059L14.764 6.44807M11.3736 3.26942L13.3729 1.39418C13.5061 1.26921 13.6643 1.17008 13.8385 1.10245C14.0126 1.03481 14.1992 1 14.3877 1C14.5762 1 14.7629 1.03481 14.937 1.10245C15.1111 1.17008 15.2693 1.26921 15.4026 1.39418L16.7641 2.67069C16.8974 2.79563 17.0032 2.94397 17.0753 3.10723C17.1474 3.27049 17.1846 3.44547 17.1846 3.62218C17.1846 3.7989 17.1474 3.97388 17.0753 4.13714C17.0032 4.3004 16.8974 4.44873 16.7641 4.57368L14.764 6.44807M11.3736 3.26942L14.764 6.44807" stroke="#B4B4B4" stroke-width="1.5" stroke-linecap="round" stroke-linejoin="round"/>
</svg>
