<svg width="16" height="15" viewBox="0 0 16 15" fill="none" xmlns="http://www.w3.org/2000/svg">
<path d="M5.87184 4.9668C7.87872 4.9668 9.61863 6.56801 10.4775 7.52131C10.8324 7.91526 10.8324 8.51238 10.4775 8.90633C9.61928 9.85963 7.87872 11.4608 5.87184 11.4608C3.86495 11.4608 2.12505 9.85963 1.26616 8.90633C0.911279 8.51238 0.911279 7.91526 1.26616 7.52131C2.1244 6.56801 3.86495 4.9668 5.87184 4.9668Z" stroke="white" stroke-miterlimit="10" stroke-linecap="round"/>
<path d="M5.87213 10.2775C7.01179 10.2775 7.93566 9.35358 7.93566 8.21393C7.93566 7.07427 7.01179 6.15039 5.87213 6.15039C4.73247 6.15039 3.80859 7.07427 3.80859 8.21393C3.80859 9.35358 4.73247 10.2775 5.87213 10.2775Z" stroke="white" stroke-width="0.7" stroke-miterlimit="10" stroke-linecap="round"/>
<path d="M5.87196 7.03613C5.79513 7.03613 5.72024 7.04395 5.64796 7.05827C5.74564 7.15009 5.80685 7.27967 5.80685 7.42358C5.80685 7.70162 5.58155 7.92692 5.3035 7.92692C5.10099 7.92692 4.92713 7.80646 4.84703 7.6339C4.74936 7.80581 4.69336 8.00376 4.69336 8.21474C4.69336 8.8659 5.22145 9.39334 5.87196 9.39334C6.52313 9.39334 7.05057 8.86525 7.05057 8.21474C7.05057 7.56423 6.52313 7.03613 5.87196 7.03613Z" fill="white"/>
<path d="M4.36133 2.5L4.36133 0.871163C4.36133 0.666046 4.52737 0.5 4.73249 0.5H11.556C11.7729 0.5 11.9812 0.585954 12.1349 0.739628L14.7825 3.38726C14.9362 3.54093 15.0222 3.7493 15.0222 3.96614V14.1288C15.0222 14.334 14.8561 14.5 14.651 14.5H4.73249C4.52737 14.5 4.36133 14.334 4.36133 14.1288L4.36133 13.5" stroke="white" stroke-width="0.8" stroke-miterlimit="10" stroke-linecap="round"/>
<path d="M15.0218 3.96614H12.2875C11.9515 3.96614 11.6787 3.6933 11.6787 3.3573V0.5L15.0218 3.96614Z" fill="white"/>
</svg>
