<svg width="30" height="26" viewBox="0 0 30 26" fill="none" xmlns="http://www.w3.org/2000/svg">
<path d="M0.249146 16.6586C0.380129 16.0499 0.570305 15.4349 0.831013 14.8324C1.09172 14.2312 1.42422 13.6423 1.82346 13.0934C2.6207 11.9904 3.68242 11.0655 4.82223 10.3746C4.96455 10.285 5.10938 10.209 5.25422 10.1256L5.67362 9.8916C5.9444 9.73724 6.21896 9.59906 6.49478 9.45839C7.04768 9.18826 7.61066 8.94302 8.17867 8.72019C10.4533 7.84257 12.7883 7.33841 15.1006 7.01848C15.544 6.95748 15.986 6.90644 16.4281 6.86038V0L23.2141 5.30307L30 10.6061L23.2141 15.9092L16.4281 21.2123V15.2158C16.0024 15.1349 15.4659 15.0503 15.0956 14.9855C13.2543 14.6681 11.4142 14.5013 9.6472 14.6021C9.20639 14.6295 8.77188 14.6731 8.34115 14.7328C8.12956 14.7677 7.91293 14.7988 7.70386 14.8436L7.54517 14.8747C7.49479 14.886 7.45323 14.8996 7.40537 14.9108C7.31469 14.937 7.21771 14.9569 7.12955 14.9855C6.40788 15.2034 5.76304 15.5208 5.20006 15.974C4.63709 16.4258 4.15849 17.0308 3.79073 17.7728C3.42171 18.5122 3.16856 19.3761 3.01869 20.2911C2.86755 21.2073 2.81591 22.1746 2.8411 23.1568C2.85622 23.7767 2.9003 24.4029 2.96957 25.0315C3.02625 25.5494 2.6144 26 2.08795 26C1.71263 26 1.37888 25.7672 1.25167 25.4187C1.02245 24.7863 0.813381 24.1427 0.634539 23.4817C0.349901 22.4323 0.137054 21.343 0.0451145 20.2052C-0.0443077 19.0711 -0.0128212 17.8786 0.249146 16.6586Z" fill="#939298"/>
</svg>
