<svg width="18" height="19" viewBox="0 0 18 19" fill="none" xmlns="http://www.w3.org/2000/svg">
<path d="M9 0.5C4.02943 0.5 0 4.52943 0 9.5C0 12.2859 1.26599 14.7759 3.25381 16.4268L3.29055 16.4095V15.926C3.29055 15.136 3.93322 14.4933 4.7232 14.4933H13.2768C14.0668 14.4933 14.7094 15.136 14.7094 15.926V16.4095L14.7462 16.4268C16.734 14.7759 18 12.2859 18 9.5C18 4.52943 13.9706 0.5 9 0.5Z" fill="#5F80F8"/>
<path d="M6.13477 13.7441H11.8654V14.4938H6.13477V13.7441Z" fill="white"/>
<path d="M6.13477 13.7441H7.60415V14.4938H6.13477V13.7441Z" fill="#EAF6FF"/>
<path d="M13.2769 14.457H4.72329C3.91179 14.457 3.25391 15.1149 3.25391 15.9264V16.4272C4.81274 17.7218 6.81544 18.5004 9.00009 18.5004C11.1847 18.5004 13.1874 17.7218 14.7463 16.4272V15.9264C14.7463 15.1149 14.0884 14.457 13.2769 14.457Z" fill="#D8ECFE"/>
<path d="M4.78119 15.9264C4.78119 15.1149 5.43907 14.457 6.25057 14.457H4.72329C3.91179 14.457 3.25391 15.1149 3.25391 15.9264V16.4272C3.72484 16.8183 4.23649 17.1619 4.78119 17.4516V15.9264Z" fill="#C4E2FF"/>
<path d="M9.13899 17.3034L10.1903 16.0849C10.2929 15.9659 10.2084 15.7812 10.0512 15.7812H7.94867C7.79149 15.7812 7.70692 15.9659 7.8096 16.0849L8.86087 17.3034C8.93412 17.3884 9.0657 17.3884 9.13899 17.3034Z" fill="white"/>
<path d="M8.5683 16.0849C8.46563 15.9659 8.55015 15.7812 8.70738 15.7812H7.94965C7.79246 15.7812 7.7079 15.9659 7.81057 16.0849L8.86181 17.3034C8.9351 17.3884 9.06668 17.3884 9.13996 17.3034L9.37977 17.0255L8.5683 16.0849Z" fill="#EAF6FF"/>
<path d="M3.19266 12.0607V10.4662C3.19266 10.1731 3.22182 9.88661 3.277 9.60938H3.00862C2.46612 9.60938 2.02637 10.0491 2.02637 10.5916V11.4265C2.02637 11.969 2.46612 12.4088 3.00862 12.4088H3.22913C3.20537 12.2964 3.19266 12.18 3.19266 12.0607Z" fill="white"/>
<path d="M14.992 9.60938H14.7236C14.7788 9.88657 14.808 10.1731 14.808 10.4662V12.0607C14.808 12.18 14.7953 12.2964 14.7715 12.4088H14.9921C15.5346 12.4088 15.9743 11.9691 15.9743 11.4266V10.5917C15.9743 10.0491 15.5345 9.60938 14.992 9.60938Z" fill="white"/>
<path d="M13.1261 13.7804H4.87518C3.92584 13.7804 3.15625 13.0108 3.15625 12.0614V10.467C3.15625 8.02585 5.13518 6.04688 7.57635 6.04688H10.4249C12.866 6.04688 14.845 8.02585 14.845 10.467V12.0614C14.845 13.0108 14.0754 13.7804 13.1261 13.7804Z" fill="#D8ECFE"/>
<path d="M5.07005 12.0614V11.49C4.79311 11.0995 4.62964 10.6232 4.62964 10.1091C4.62964 9.24456 5.09044 8.48569 5.77929 8.06501C6.56707 6.85048 7.9347 6.04688 9.49019 6.04688H7.57639C5.13522 6.04688 3.15625 8.02585 3.15625 10.467V12.0614C3.15625 13.0108 3.92584 13.7804 4.87518 13.7804H6.78898C5.83964 13.7804 5.07005 13.0108 5.07005 12.0614Z" fill="#C4E2FF"/>
<path d="M7.02228 12.5026C5.70259 12.5026 4.62891 11.4289 4.62891 10.1092C4.62891 8.7895 5.70259 7.71582 7.02228 7.71582H10.9776C12.2973 7.71582 13.3709 8.7895 13.3709 10.1092C13.3709 11.4289 12.2973 12.5026 10.9776 12.5026H7.02228Z" fill="#116D9A"/>
<path d="M6.17136 10.1092C6.17136 8.7895 7.24504 7.71582 8.56473 7.71582H7.02228C5.70259 7.71582 4.62891 8.7895 4.62891 10.1092C4.62891 11.4289 5.70259 12.5026 7.02228 12.5026H8.56473C7.24504 12.5026 6.17136 11.4289 6.17136 10.1092Z" fill="#005E89"/>
<path d="M10.277 11.263H7.72311C7.58749 11.263 7.47754 11.153 7.47754 11.0174V10.6245C7.47754 10.4889 7.58749 10.3789 7.72311 10.3789H10.277C10.4126 10.3789 10.5225 10.4889 10.5225 10.6245V11.0174C10.5225 11.153 10.4126 11.263 10.277 11.263Z" fill="#F2C94C"/>
<path d="M7.04808 10.0837H6.40963C6.27401 10.0837 6.16406 9.97375 6.16406 9.83812V9.19967C6.16406 9.06405 6.27401 8.9541 6.40963 8.9541H7.04808C7.18371 8.9541 7.29365 9.06405 7.29365 9.19967V9.83812C7.29365 9.97375 7.18371 10.0837 7.04808 10.0837Z" fill="#F2C94C"/>
<path d="M11.5911 10.0837H10.9526C10.817 10.0837 10.707 9.97375 10.707 9.83812V9.19967C10.707 9.06405 10.817 8.9541 10.9526 8.9541H11.5911C11.7267 8.9541 11.8366 9.06405 11.8366 9.19967V9.83812C11.8366 9.97375 11.7267 10.0837 11.5911 10.0837Z" fill="#F2C94C"/>
</svg>
