<svg width="20" height="21" viewBox="0 0 20 21" fill="none" xmlns="http://www.w3.org/2000/svg">
<path d="M3 19.5H14.9999C16.0608 19.5 17.0782 19.0785 17.8283 18.3284C18.5785 17.5783 18.9999 16.5608 18.9999 15.5V3.5C18.9999 2.96956 18.7892 2.46086 18.4141 2.08579C18.039 1.71071 17.5303 1.5 16.9999 1.5H6.99997C6.46954 1.5 5.96084 1.71071 5.58577 2.08579C5.2107 2.46086 4.99998 2.96956 4.99998 3.5V16.5C4.99998 18.157 4.65699 19.5 3 19.5Z" stroke="#707275" stroke-width="1.5" stroke-linecap="round" stroke-linejoin="round"/>
<path d="M1 8.5C1 7.96956 1.21071 7.46086 1.58578 7.08579C1.96085 6.71071 2.46956 6.5 2.99998 6.5H4.99997V17C4.99997 18.38 4.37997 19.5 2.99998 19.5C1.62 19.5 1 18.38 1 17V8.5Z" stroke="#707275" stroke-width="1.5" stroke-linecap="round" stroke-linejoin="round"/>
<path d="M9.99999 7.5C10.5523 7.5 11 7.05228 11 6.5C11 5.94771 10.5523 5.5 9.99999 5.5C9.44771 5.5 9 5.94771 9 6.5C9 7.05228 9.44771 7.5 9.99999 7.5Z" stroke="#707275" stroke-width="1.5" stroke-linecap="round"/>
<path d="M9 12.5H15M9 15.5H12" stroke="#707275" stroke-width="1.5" stroke-linecap="round"/>
</svg>
